# Blender 3.1.0
# www.blender.org
o ì›í˜•
v 0.000000 0.112713 -1.000000
v -0.300960 0.041971 -0.414236
v -0.951057 0.112713 -0.309017
v -0.486964 0.041971 0.158224
v -0.587785 0.112713 0.809017
v 0.000000 0.041971 0.512024
v 0.587785 0.112713 0.809017
v 0.486964 0.041971 0.158224
v 0.951056 0.112713 -0.309017
v 0.300960 0.041971 -0.414236
v -0.300960 0.183455 -0.414236
v -0.486964 0.183455 0.158224
v 0.000000 0.183455 0.512024
v 0.486964 0.183455 0.158224
v 0.300960 0.183455 -0.414236
v -0.000000 0.287757 -0.000000
v 0.000000 -0.062331 -0.000000
v -0.475528 0.000000 -0.154509
v -0.293893 0.000000 0.404509
v 0.293893 0.000000 0.404508
v 0.475528 0.000000 -0.154509
v 0.000000 0.000000 -0.500000
v -0.293893 0.225426 0.404509
v -0.475528 0.225426 -0.154509
v 0.000000 0.225426 -0.500000
v 0.475528 0.225426 -0.154509
v 0.293893 0.225426 0.404508
vn -0.0630 -0.9777 -0.2004
vn -0.1449 0.9568 -0.2520
vn -0.4510 -0.0000 0.8925
vn 0.8895 -0.0000 -0.4570
vn -0.9882 -0.0000 -0.1531
vn 0.7095 -0.0000 0.7047
vn -0.1598 -0.0000 -0.9872
vn -0.7095 -0.0000 0.7047
vn -0.8895 -0.0000 -0.4570
vn 0.1598 -0.0000 -0.9872
vn 0.9882 -0.0000 -0.1531
vn 0.4510 -0.0000 0.8925
vn -0.1688 0.9777 0.1250
vn -0.2100 0.9777 -0.0020
vn 0.0309 0.9568 0.2891
vn -0.0668 0.9777 0.1992
vn 0.2845 0.9568 0.0599
vn 0.1688 0.9777 0.1250
vn 0.1449 0.9568 -0.2520
vn 0.1711 0.9777 -0.1219
vn -0.1949 0.9568 -0.2157
vn -0.2654 -0.9568 0.1187
vn -0.2100 -0.9777 -0.0020
vn 0.0309 -0.9568 0.2891
vn -0.0668 -0.9777 0.1992
vn 0.1688 -0.9777 0.1250
vn 0.1449 -0.9568 -0.2520
vn 0.1711 -0.9777 -0.1219
vn 0.2845 -0.9568 0.0599
vn -0.1711 -0.9777 -0.1219
vn -0.2845 0.9568 0.0599
vn -0.0309 0.9568 0.2891
vn 0.2654 0.9568 0.1187
vn 0.1949 0.9568 -0.2157
vn -0.1688 -0.9777 0.1250
vn 0.0668 -0.9777 0.1992
vn 0.2654 -0.9568 0.1187
vn 0.1949 -0.9568 -0.2157
vn -0.1449 -0.9568 -0.2520
vn -0.1949 -0.9568 -0.2157
vn -0.2654 0.9568 0.1187
vn 0.0668 0.9777 0.1992
vn 0.2100 0.9777 -0.0020
vn 0.0630 0.9777 -0.2004
vn -0.1711 0.9777 -0.1219
vn -0.2845 -0.9568 0.0599
vn -0.0309 -0.9568 0.2891
vn 0.0630 -0.9777 -0.2004
vn 0.2100 -0.9777 -0.0020
vn -0.0630 0.9777 -0.2004
vt 0.000000 0.000000
vt 0.000000 0.000000
vt 0.000000 0.000000
vt 0.000000 0.000000
vt 0.000000 0.000000
vt 0.000000 0.000000
vt 0.000000 0.000000
vt 0.000000 0.000000
vt 0.000000 0.000000
vt 0.000000 0.000000
vt 0.000000 0.000000
vt 0.000000 0.000000
vt 0.000000 0.000000
vt 0.000000 0.000000
vt 0.000000 0.000000
vt 0.000000 0.000000
vt 0.000000 0.000000
vt 0.000000 0.000000
vt 0.000000 0.000000
vt 0.000000 0.000000
vt 0.000000 0.000000
vt 0.000000 0.000000
vt 0.000000 0.000000
vt 0.000000 0.000000
vt 0.000000 0.000000
vt 0.000000 0.000000
vt 0.000000 0.000000
s 0
f 2/2/1 17/17/1 18/18/1
f 11/11/2 3/3/2 24/24/2
f 6/6/3 7/7/3 13/13/3
f 10/10/4 1/1/4 15/15/4
f 4/4/5 5/5/5 12/12/5
f 8/8/6 9/9/6 14/14/6
f 2/2/7 3/3/7 11/11/7
f 3/3/8 4/4/8 12/12/8
f 1/1/9 2/2/9 11/11/9
f 9/9/10 10/10/10 15/15/10
f 7/7/11 8/8/11 14/14/11
f 5/5/12 6/6/12 13/13/12
f 16/16/13 24/24/13 12/12/13
f 12/12/14 23/23/14 16/16/14
f 5/5/15 13/13/15 23/23/15
f 13/13/16 27/27/16 16/16/16
f 7/7/17 14/14/17 27/27/17
f 14/14/18 26/26/18 16/16/18
f 9/9/19 15/15/19 26/26/19
f 15/15/20 25/25/20 16/16/20
f 1/1/21 11/11/21 25/25/21
f 3/3/22 18/18/22 4/4/22
f 4/4/23 17/17/23 19/19/23
f 5/5/24 19/19/24 6/6/24
f 6/6/25 17/17/25 20/20/25
f 8/8/26 17/17/26 21/21/26
f 9/9/27 21/21/27 10/10/27
f 10/10/28 17/17/28 22/22/28
f 7/7/29 20/20/29 8/8/29
f 17/17/30 2/2/30 22/22/30
f 23/23/31 12/12/31 5/5/31
f 27/27/32 13/13/32 7/7/32
f 26/26/33 14/14/33 9/9/33
f 25/25/34 15/15/34 1/1/34
f 4/4/35 18/18/35 17/17/35
f 6/6/36 19/19/36 17/17/36
f 21/21/37 9/9/37 8/8/37
f 22/22/38 1/1/38 10/10/38
f 18/18/39 3/3/39 2/2/39
f 22/22/40 2/2/40 1/1/40
f 12/12/41 24/24/41 3/3/41
f 23/23/42 13/13/42 16/16/42
f 27/27/43 14/14/43 16/16/43
f 26/26/44 15/15/44 16/16/44
f 25/25/45 11/11/45 16/16/45
f 19/19/46 5/5/46 4/4/46
f 20/20/47 7/7/47 6/6/47
f 10/10/48 21/21/48 17/17/48
f 8/8/49 20/20/49 17/17/49
f 24/24/50 16/16/50 11/11/50
