# Blender 3.1.0
# www.blender.org
o ì›í˜•
v 0.408364 0.002815 0.301767
v -0.008744 -0.105411 0.006209
v 0.494167 -0.074373 0.007874
v 0.417276 0.143314 0.287674
v 1.000251 0.006695 0.004518
v 0.508366 0.149482 -0.014582
v -0.155457 -0.040963 -0.491153
v -0.799515 0.059330 -0.608755
v -0.146546 0.099535 -0.505247
v -0.164698 0.056822 0.477809
v 0.301646 0.144830 0.939846
v -0.155786 0.197320 0.463715
v 0.414076 -0.057619 -0.297084
v 0.319694 -0.046148 -0.952570
v 0.422987 0.082879 -0.311178
v -0.513159 0.029766 -0.012243
v -0.810670 0.177361 0.560822
v -0.504249 0.170264 -0.026337
v 0.013306 0.242238 -0.028664
v 0.168087 0.123061 -0.493127
v -0.391519 0.175799 -0.321218
v -0.397096 0.234814 0.263570
v 0.159063 0.218550 0.453081
v 0.153889 -0.100794 -0.470672
v -0.405717 -0.048055 -0.298763
v -0.411294 0.010959 0.286025
v 0.144865 -0.005306 0.475537
vn 0.0584 -0.9612 0.2695
vn 0.2737 0.9564 0.1020
vn 0.1622 -0.1087 -0.9808
vn -0.7100 0.1147 0.6948
vn 0.9867 -0.0770 -0.1434
vn -0.8864 0.0098 -0.4627
vn 0.4476 0.0611 0.8921
vn 0.4645 -0.1175 -0.8777
vn 0.9836 -0.0449 0.1745
vn 0.1434 0.0898 0.9856
vn -0.8950 0.1004 0.4346
vn -0.6965 -0.0277 -0.7170
vn 0.1848 0.9462 -0.2657
vn 0.2621 0.9522 -0.1570
vn -0.0557 0.9308 -0.3612
vn 0.0655 0.9497 -0.3063
vn -0.2285 0.9711 -0.0691
vn -0.1365 0.9765 -0.1670
vn -0.0022 0.9824 0.1868
vn -0.0648 0.9955 0.0686
vn 0.3104 0.9491 0.0528
vn 0.1568 -0.9830 -0.0952
vn 0.1390 -0.9896 0.0378
vn -0.1762 -0.9695 -0.1706
vn -0.0576 -0.9921 -0.1116
vn -0.2597 -0.9653 0.0278
vn -0.1228 -0.9179 0.3774
vn -0.1880 -0.9462 0.2633
vn -0.3490 -0.9292 0.1215
vn 0.1378 -0.9769 0.1633
vn 0.3131 0.9200 -0.2355
vn 0.0031 0.9253 -0.3793
vn -0.2279 0.9649 -0.1306
vn -0.0607 0.9841 0.1668
vn 0.0617 -0.9956 -0.0709
vn -0.1848 -0.9801 -0.0725
vn -0.3484 -0.9354 0.0600
vn -0.1812 -0.9162 0.3574
vn 0.1531 -0.9439 0.2926
vn 0.1899 -0.9512 0.2434
vn 0.2774 0.9173 -0.2858
vn -0.0616 0.9616 -0.2673
vn -0.1378 0.9899 -0.0341
vn 0.0615 0.9918 0.1116
vn 0.2609 0.9648 -0.0315
vn 0.1926 -0.9802 -0.0449
vn -0.1174 -0.9750 -0.1886
vn -0.0616 -0.9499 0.3064
vn -0.2610 -0.9519 0.1607
vn 0.1816 0.9805 0.0747
vt 0.000000 0.000000
vt 0.000000 0.000000
vt 0.000000 0.000000
vt 0.000000 0.000000
vt 0.000000 0.000000
vt 0.000000 0.000000
vt 0.000000 0.000000
vt 0.000000 0.000000
vt 0.000000 0.000000
vt 0.000000 0.000000
vt 0.000000 0.000000
vt 0.000000 0.000000
vt 0.000000 0.000000
vt 0.000000 0.000000
vt 0.000000 0.000000
vt 0.000000 0.000000
vt 0.000000 0.000000
vt 0.000000 0.000000
vt 0.000000 0.000000
vt 0.000000 0.000000
vt 0.000000 0.000000
vt 0.000000 0.000000
vt 0.000000 0.000000
vt 0.000000 0.000000
vt 0.000000 0.000000
vt 0.000000 0.000000
vt 0.000000 0.000000
s 1
f 1/1/1 2/2/1 3/3/1
f 4/4/2 5/5/2 6/6/2
f 7/7/3 8/8/3 9/9/3
f 10/10/4 11/11/4 12/12/4
f 13/13/5 14/14/5 15/15/5
f 16/16/6 17/17/6 18/18/6
f 1/1/7 5/5/7 4/4/7
f 5/5/8 13/13/8 15/15/8
f 11/11/9 1/1/9 4/4/9
f 17/17/10 10/10/10 12/12/10
f 8/8/11 16/16/11 18/18/11
f 14/14/12 7/7/12 9/9/12
f 19/19/13 6/6/13 15/15/13
f 15/15/14 20/20/14 19/19/14
f 14/14/15 9/9/15 20/20/15
f 9/9/16 21/21/16 19/19/16
f 8/8/17 18/18/17 21/21/17
f 18/18/18 22/22/18 19/19/18
f 17/17/19 12/12/19 22/22/19
f 12/12/20 23/23/20 19/19/20
f 11/11/21 4/4/21 23/23/21
f 5/5/22 3/3/22 13/13/22
f 13/13/23 2/2/23 24/24/23
f 14/14/24 24/24/24 7/7/24
f 7/7/25 2/2/25 25/25/25
f 16/16/26 2/2/26 26/26/26
f 17/17/27 26/26/27 10/10/27
f 10/10/28 2/2/28 27/27/28
f 8/8/29 25/25/29 16/16/29
f 2/2/30 1/1/30 27/27/30
f 20/20/31 15/15/31 14/14/31
f 21/21/32 9/9/32 8/8/32
f 22/22/33 18/18/33 17/17/33
f 23/23/34 12/12/34 11/11/34
f 13/13/35 3/3/35 2/2/35
f 7/7/36 24/24/36 2/2/36
f 26/26/37 17/17/37 16/16/37
f 27/27/38 11/11/38 10/10/38
f 3/3/39 5/5/39 1/1/39
f 27/27/40 1/1/40 11/11/40
f 15/15/41 6/6/41 5/5/41
f 20/20/42 9/9/42 19/19/42
f 21/21/43 18/18/43 19/19/43
f 22/22/44 12/12/44 19/19/44
f 23/23/45 4/4/45 19/19/45
f 24/24/46 14/14/46 13/13/46
f 25/25/47 8/8/47 7/7/47
f 10/10/48 26/26/48 2/2/48
f 16/16/49 25/25/49 2/2/49
f 6/6/50 19/19/50 4/4/50
